<svg width="1061" height="469" viewBox="0 0 1061 469" fill="none" xmlns="http://www.w3.org/2000/svg">
<rect width="1061" height="469" fill="#324AA4"/>
<path d="M54 107H102.672C122.832 107 140.208 110.936 154.8 118.808C169.392 126.488 180.528 137.72 188.208 152.504C195.888 167.288 199.728 184.952 199.728 205.496C199.728 236.216 191.184 260.216 174.096 277.496C157.008 294.776 133.2 303.416 102.672 303.416H54V107ZM102.096 283.832C125.52 283.832 143.856 277.4 157.104 264.536C170.352 251.672 176.976 231.992 176.976 205.496C176.976 178.808 170.352 159.032 157.104 146.168C143.856 133.304 125.52 126.872 102.096 126.872H75.6V283.832H102.096ZM238.212 303.416V107H348.228V125.144H259.812V193.688H328.932V211.256H259.812V285.56H349.092V303.416H238.212ZM505.168 303.416L485.008 248.408H403.504L385.36 303.416H363.76L433.456 107H453.616L525.328 303.416H505.168ZM410.128 230.552H478.384L443.248 135.224L410.128 230.552ZM551.525 303.416V107H658.661V125.144H573.125V193.688H636.485V211.256H573.125V303.416H551.525Z" fill="#E1E1E1"/>
<path d="M596.891 202.477L866.891 200.416" stroke="#E1E1E1" stroke-width="18"/>
<path d="M871.579 202.83L830.613 246.669" stroke="#E1E1E1" stroke-width="10"/>
<path d="M869.167 199.357L826.237 157.439" stroke="#E1E1E1" stroke-width="10"/>
<path d="M823.473 254.579L827.079 243.049L834.344 250.06L823.473 254.579Z" fill="#E1E1E1"/>
<path d="M818.419 150.094L829.862 153.955L822.706 161.055L818.419 150.094Z" fill="#E1E1E1"/>
<path d="M880.754 202.947L865.586 216.701L866.412 190.184L880.754 202.947Z" fill="#E1E1E1"/>
<path d="M685.373 237.813L694.07 227.417L698.572 236.25L685.373 237.813Z" fill="#E1E1E1"/>
<path d="M761.396 237.484L767.367 228.419L771.912 237.339L761.396 237.484Z" fill="#E1E1E1"/>
<g filter="url(#filter0_d)">
<path d="M930.558 174.793C929.64 170.926 934.313 168.232 937.199 170.965L948.482 181.644C949.767 182.86 951.697 183.088 953.229 182.205L966.271 174.687C969.556 172.794 973.387 176.108 971.985 179.631L965.977 194.736C965.372 196.257 965.755 197.994 966.944 199.119L978.955 210.488C981.795 213.176 979.489 217.921 975.622 217.351L961.146 215.215C959.312 214.945 957.531 215.971 956.846 217.694L951.438 231.29C949.993 234.923 944.732 234.539 943.829 230.735L940.012 214.644C939.634 213.051 938.323 211.849 936.704 211.61L920.622 209.238C916.87 208.684 915.923 203.708 919.208 201.815L932.249 194.298C933.782 193.414 934.552 191.63 934.144 189.909L930.558 174.793Z" fill="white"/>
<path d="M936.856 171.328L948.138 182.007C949.583 183.375 951.755 183.631 953.479 182.638L966.52 175.121C969.395 173.464 972.747 176.363 971.521 179.446L965.513 194.551C964.832 196.263 965.263 198.216 966.601 199.483L978.612 210.852C981.096 213.203 979.079 217.355 975.695 216.856L961.219 214.721C959.155 214.416 957.152 215.571 956.381 217.509L950.974 231.106C949.709 234.284 945.105 233.948 944.316 230.62L940.498 214.528C940.073 212.736 938.599 211.384 936.777 211.115L920.695 208.743C917.412 208.259 916.583 203.905 919.458 202.248L932.499 194.731C934.223 193.737 935.09 191.729 934.63 189.793L931.044 174.677C930.241 171.294 934.33 168.937 936.856 171.328Z" stroke="#07699F"/>
</g>
<g filter="url(#filter1_d)">
<path d="M911.12 126.775L953.156 167.569C953.958 168.347 955.178 168.499 956.146 167.941L1001.57 141.756C1002.79 141.054 1004.22 142.261 1003.73 143.578L984.337 195.749C983.992 196.678 984.228 197.723 984.939 198.414L1027.53 239.748C1028.59 240.774 1027.69 242.551 1026.24 242.303L972.609 233.145C971.425 232.943 970.264 233.612 969.845 234.738L950.891 285.732C950.378 287.113 948.388 287.003 948.03 285.573L933.611 228C933.37 227.038 932.584 226.31 931.607 226.143L876.743 216.773C875.358 216.537 875.03 214.697 876.247 213.995L921.675 187.81C922.642 187.253 923.123 186.12 922.851 185.037L908.62 128.215C908.254 126.751 910.037 125.723 911.12 126.775Z" stroke="white"/>
</g>
<path d="M762.196 198.888L696.196 231.888" stroke="#E1E1E1" stroke-width="10"/>
<path d="M836.511 199.905L769.511 232.905" stroke="#E1E1E1" stroke-width="10"/>
<path d="M763.253 152.549L773.703 154.036L767.321 161.748L763.253 152.549Z" fill="#E1E1E1"/>
<path d="M822.404 199.779L770.471 157.954" stroke="#E1E1E1" stroke-width="10"/>
<path d="M692.998 149.74L706.246 152.466L700.719 160.532L692.998 149.74Z" fill="#E1E1E1"/>
<path d="M763.882 198.649L703.335 156.47" stroke="#E1E1E1" stroke-width="10"/>
<path d="M638.66 377.416V368.176H647.9V291.176H638.66V281.936H667.64V291.176H658.4V368.176H667.64V377.416H638.66ZM715.434 309.656C720.007 309.656 724.207 310.589 728.034 312.456C731.954 314.323 735.034 317.076 737.274 320.716C739.607 324.356 740.774 328.649 740.774 333.596V377.416H731.254V337.796C731.254 324.823 725.467 318.336 713.894 318.336C707.174 318.336 702.134 320.716 698.774 325.476C695.414 330.236 693.734 336.629 693.734 344.656V377.416H684.214V311.896H693.734V322.816C695.974 318.616 698.914 315.396 702.554 313.156C706.287 310.823 710.58 309.656 715.434 309.656ZM787.829 379.656C781.482 379.656 775.836 378.163 770.889 375.176C765.942 372.189 762.069 368.036 759.269 362.716C756.469 357.396 755.069 351.376 755.069 344.656C755.069 337.936 756.422 331.916 759.129 326.596C761.929 321.276 765.802 317.123 770.749 314.136C775.696 311.149 781.296 309.656 787.549 309.656C792.869 309.656 797.489 310.823 801.409 313.156C805.422 315.396 809.062 318.616 812.329 322.816L805.329 328.276C800.756 321.649 794.829 318.336 787.549 318.336C783.162 318.336 779.196 319.456 775.649 321.696C772.196 323.936 769.489 327.063 767.529 331.076C765.569 335.089 764.589 339.616 764.589 344.656C764.589 349.696 765.569 354.223 767.529 358.236C769.489 362.249 772.196 365.376 775.649 367.616C779.196 369.856 783.162 370.976 787.549 370.976C792.029 370.976 795.716 370.229 798.609 368.736C801.502 367.149 804.116 364.863 806.449 361.876L813.869 367.056C810.789 370.883 806.962 373.963 802.389 376.296C797.909 378.536 793.056 379.656 787.829 379.656ZM831.448 378.536C829.394 378.536 827.621 377.789 826.128 376.296C824.728 374.803 824.028 372.983 824.028 370.836C824.028 368.783 824.728 367.009 826.128 365.516C827.621 364.023 829.394 363.276 831.448 363.276C833.594 363.276 835.414 364.023 836.908 365.516C838.401 367.009 839.148 368.829 839.148 370.976C839.148 373.029 838.401 374.803 836.908 376.296C835.414 377.789 833.594 378.536 831.448 378.536Z" fill="#F0F0F0"/>
<defs>
<filter id="filter0_d" x="913.203" y="169.852" width="71.0169" height="71.9604" filterUnits="userSpaceOnUse" color-interpolation-filters="sRGB">
<feFlood flood-opacity="0" result="BackgroundImageFix"/>
<feColorMatrix in="SourceAlpha" type="matrix" values="0 0 0 0 0 0 0 0 0 0 0 0 0 0 0 0 0 0 127 0"/>
<feOffset dy="4"/>
<feGaussianBlur stdDeviation="2"/>
<feColorMatrix type="matrix" values="0 0 0 0 0 0 0 0 0 0 0 0 0 0 0 0 0 0 0.25 0"/>
<feBlend mode="normal" in2="BackgroundImageFix" result="effect1_dropShadow"/>
<feBlend mode="normal" in="SourceGraphic" in2="effect1_dropShadow" result="shape"/>
</filter>
<filter id="filter1_d" x="870.995" y="125.842" width="161.499" height="169.367" filterUnits="userSpaceOnUse" color-interpolation-filters="sRGB">
<feFlood flood-opacity="0" result="BackgroundImageFix"/>
<feColorMatrix in="SourceAlpha" type="matrix" values="0 0 0 0 0 0 0 0 0 0 0 0 0 0 0 0 0 0 127 0"/>
<feOffset dy="4"/>
<feGaussianBlur stdDeviation="2"/>
<feColorMatrix type="matrix" values="0 0 0 0 0 0 0 0 0 0 0 0 0 0 0 0 0 0 0.25 0"/>
<feBlend mode="normal" in2="BackgroundImageFix" result="effect1_dropShadow"/>
<feBlend mode="normal" in="SourceGraphic" in2="effect1_dropShadow" result="shape"/>
</filter>
</defs>
</svg>
